<svg version="1.1" xmlns="http://www.w3.org/2000/svg" xmlns:xlink="http://www.w3.org/1999/xlink" width="45.09895" height="39.67184" viewBox="0,0,45.09895,39.67184"><g transform="translate(-217.45053,-160.16409)"><g data-paper-data="{&quot;isPaintingLayer&quot;:true}" fill="#000000" fill-rule="nonzero" stroke="none" stroke-width="0" stroke-linecap="butt" stroke-linejoin="miter" stroke-miterlimit="10" stroke-dasharray="" stroke-dashoffset="0" style="mix-blend-mode: normal"><path d="M225.86445,173.88179c6.17022,6.15944 9.14265,9.12788 9.14265,9.12788c0,0 -0.02646,-7.51533 -0.03405,-17.91136c-0.0019,-2.72312 2.20431,-4.93222 4.92713,-4.93422c2.72322,-0.002 4.93172,2.20381 4.93372,4.92703c0.00639,8.71601 0.03445,17.8846 0.03445,17.8846c0,0 1.66644,-1.64897 9.26197,-9.25608c1.92435,-1.92714 5.04585,-1.92943 6.97249,-0.00509c1.92664,1.92524 1.92943,5.04625 0.00509,6.97289c-6.15843,6.16843 -17.67664,17.70201 -17.67664,17.70201c-1.92425,1.92664 -5.04625,1.92893 -6.97249,0.00509c0,0 -9.95361,-9.93863 -17.56072,-17.53466c-1.92804,-1.92524 -1.93033,-5.04675 -0.00509,-6.97299c1.92384,-1.92714 5.04625,-1.92943 6.97149,-0.00509z" data-paper-data="{&quot;index&quot;:null}"/></g></g></svg>