<svg version="1.1" xmlns="http://www.w3.org/2000/svg" xmlns:xlink="http://www.w3.org/1999/xlink" width="39.67184" height="45.09895" viewBox="0,0,39.67184,45.09895"><g transform="translate(-220.16408,-157.45053)"><g data-paper-data="{&quot;isPaintingLayer&quot;:true}" fill="#ff4444" fill-rule="nonzero" stroke="none" stroke-width="0" stroke-linecap="butt" stroke-linejoin="miter" stroke-miterlimit="10" stroke-dasharray="" stroke-dashoffset="0" style="mix-blend-mode: normal"><path d="M246.1182,194.13555c1.92434,1.92524 1.92205,5.04765 -0.00509,6.97149c-1.92624,1.92524 -5.04775,1.92295 -6.97299,-0.00509c-7.59603,-7.60711 -17.53466,-17.56072 -17.53466,-17.56072c-1.92384,-1.92624 -1.92155,-5.04824 0.00509,-6.97249c0,0 11.53358,-11.51821 17.70201,-17.67664c1.92664,-1.92434 5.04765,-1.92155 6.97289,0.00509c1.92434,1.92664 1.92205,5.04814 -0.00509,6.97249c-7.60711,7.59553 -9.25608,9.26197 -9.25608,9.26197c0,0 9.16859,0.02806 17.8846,0.03445c2.72322,0.002 4.92903,2.2105 4.92703,4.93372c-0.002,2.72282 -2.2111,4.92903 -4.93422,4.92713c-10.39603,-0.00759 -17.91136,-0.03405 -17.91136,-0.03405c0,0 2.96844,2.97243 9.12788,9.14265z" data-paper-data="{&quot;index&quot;:null}"/></g></g></svg>