<svg version="1.1" xmlns="http://www.w3.org/2000/svg" xmlns:xlink="http://www.w3.org/1999/xlink" width="39.67184" height="45.09895" viewBox="0,0,39.67184,45.09895"><g transform="translate(-220.16407,-157.45052)"><g data-paper-data="{&quot;isPaintingLayer&quot;:true}" fill="#ff4444" fill-rule="nonzero" stroke="none" stroke-width="0" stroke-linecap="butt" stroke-linejoin="miter" stroke-miterlimit="10" stroke-dasharray="" stroke-dashoffset="0" style="mix-blend-mode: normal"><path d="M233.88178,194.13555c6.15944,-6.17022 9.12788,-9.14265 9.12788,-9.14265c0,0 -7.51533,0.02646 -17.91136,0.03405c-2.72312,0.0019 -4.93222,-2.20431 -4.93422,-4.92713c-0.002,-2.72322 2.20381,-4.93172 4.92703,-4.93372c8.71601,-0.00639 17.8846,-0.03445 17.8846,-0.03445c0,0 -1.64897,-1.66644 -9.25608,-9.26197c-1.92714,-1.92435 -1.92943,-5.04585 -0.00509,-6.97249c1.92524,-1.92664 5.04625,-1.92943 6.97289,-0.00509c6.16843,6.15843 17.70201,17.67664 17.70201,17.67664c1.92664,1.92425 1.92893,5.04625 0.00509,6.97249c0,0 -9.93863,9.95361 -17.53466,17.56072c-1.92524,1.92804 -5.04675,1.93033 -6.97299,0.00509c-1.92714,-1.92384 -1.92943,-5.04625 -0.00509,-6.97149z" data-paper-data="{&quot;index&quot;:null}"/></g></g></svg>