<svg version="1.1" xmlns="http://www.w3.org/2000/svg" xmlns:xlink="http://www.w3.org/1999/xlink" width="45.09895" height="39.67184" viewBox="0,0,45.09895,39.67184"><g transform="translate(-217.45053,-160.16409)"><g data-paper-data="{&quot;isPaintingLayer&quot;:true}" fill="#ff4444" fill-rule="nonzero" stroke="none" stroke-width="0" stroke-linecap="butt" stroke-linejoin="miter" stroke-miterlimit="10" stroke-dasharray="" stroke-dashoffset="0" style="mix-blend-mode: normal"><path d="M225.86445,186.11821c-1.92524,1.92434 -5.04765,1.92205 -6.97149,-0.00509c-1.92524,-1.92624 -1.92295,-5.04775 0.00509,-6.97299c7.60711,-7.59603 17.56072,-17.53466 17.56072,-17.53466c1.92624,-1.92384 5.04824,-1.92155 6.97249,0.00509c0,0 11.51821,11.53358 17.67664,17.70201c1.92434,1.92664 1.92155,5.04765 -0.00509,6.97289c-1.92664,1.92434 -5.04814,1.92205 -6.97249,-0.00509c-7.59553,-7.60711 -9.26197,-9.25608 -9.26197,-9.25608c0,0 -0.02806,9.16859 -0.03445,17.8846c-0.002,2.72322 -2.2105,4.92903 -4.93372,4.92703c-2.72282,-0.002 -4.92903,-2.2111 -4.92713,-4.93422c0.00759,-10.39603 0.03405,-17.91136 0.03405,-17.91136c0,0 -2.97243,2.96844 -9.14265,9.12788z"/></g></g></svg>